# xmcd
#
# Track frame offsets: 
#        150
#        12669
#        25131
#        36566
#        49857
#        64615
#        79739
#        91692
#        102380
#        112921
#        132000
#        164571
#        180277
#        195026
#        224627
#        245589
#        263228
#        274242
#        289293
#        301167
#        308406
#        321505
#        336843
#
# Disc length: 4686 seconds
#
# Revision: 0
# Processed by: cddbd v1.5.2PL0 Copyright (c) Steve Scherf et al.
# Submitted via: ExactAudioCopyFreeDBPlugin 1.0
#
DISCID=46124c17
DTITLE=Jessi Colter - I'm Jessi Colter - Diamond In The Rough {2011 Ra
DTITLE=ven RVCD-341}
DYEAR=1975
DGENRE=Country
TTITLE0=Is There Any Way (You'd Stay Forever)
TTITLE1=I Hear A Song
TTITLE2=Come On In
TTITLE3=You Ain't Never Been Loved (Like I'm Gonna Love You)
TTITLE4=Loves The Only Chain
TTITLE5=I'm Not Lisa
TTITLE6=For The First Time
TTITLE7=Who Walks Thru Your Memory (Billy Jo)
TTITLE8=What's Happened To Blue Eyes
TTITLE9=Storms Never Last
TTITLE10=Diamond In The Rough
TTITLE11=Get Back
TTITLE12=Would You Leave Now
TTITLE13=Hey Jude
TTITLE14=Oh Will (Who Made It Rain Last Night)
TTITLE15=I Thought I Heard You Calling My Name
TTITLE16=Ain't No Way
TTITLE17=You Hung The Moon (Didnt You Waylon?)
TTITLE18=A Womans Heart (Is A Handy Place To Be)
TTITLE19=Oh Will (Reprise)
TTITLE20=Black Haired Boy (bonus track)
TTITLE21=Thats The Way A Cowboy Rocks And Rolls (bonus track)
TTITLE22=My Cowboys Last Ride (bonus track)
EXTD=
EXTT0=
EXTT1=
EXTT2=
EXTT3=
EXTT4=
EXTT5=
EXTT6=
EXTT7=
EXTT8=
EXTT9=
EXTT10=
EXTT11=
EXTT12=
EXTT13=
EXTT14=
EXTT15=
EXTT16=
EXTT17=
EXTT18=
EXTT19=
EXTT20=
EXTT21=
EXTT22=
PLAYORDER=
